<svg xmlns="http://www.w3.org/2000/svg" xmlns:xlink="http://www.w3.org/1999/xlink" width="500" zoomAndPan="magnify" viewBox="0 0 375 374.999991" height="500" preserveAspectRatio="xMidYMid meet" version="1.0"><defs><g/><clipPath id="69ec900c7a"><path d="M 117.226562 73.847656 L 257.773438 73.847656 L 257.773438 214.394531 L 117.226562 214.394531 Z M 117.226562 73.847656 " clip-rule="nonzero"/></clipPath><clipPath id="6d97c30905"><path d="M 187.5 73.847656 C 148.6875 73.847656 117.226562 105.3125 117.226562 144.121094 C 117.226562 182.933594 148.6875 214.394531 187.5 214.394531 C 226.3125 214.394531 257.773438 182.933594 257.773438 144.121094 C 257.773438 105.3125 226.3125 73.847656 187.5 73.847656 " clip-rule="nonzero"/></clipPath><clipPath id="74a543c271"><path d="M 155.488281 72.066406 L 249.179688 72.066406 L 249.179688 176 L 155.488281 176 Z M 155.488281 72.066406 " clip-rule="nonzero"/></clipPath><clipPath id="17f035c330"><path d="M 155.488281 175 L 236 175 L 236 216.152344 L 155.488281 216.152344 Z M 155.488281 175 " clip-rule="nonzero"/></clipPath></defs><g clip-path="url(#69ec900c7a)"><g clip-path="url(#6d97c30905)"><path fill="#2d1902" d="M 117.226562 73.847656 L 257.773438 73.847656 L 257.773438 214.394531 L 117.226562 214.394531 Z M 117.226562 73.847656 " fill-opacity="1" fill-rule="nonzero"/></g></g><g clip-path="url(#74a543c271)"><path fill="#f6f7f1" d="M 282.40625 15.714844 C 250.824219 19.847656 219.664062 31.21875 190.476562 44.84375 C 162.476562 57.914062 130.21875 93.597656 185.417969 91.234375 C 194.742188 90.832031 204.453125 87.625 213.984375 86.546875 C 229.722656 84.75 238.613281 91.371094 217.578125 102.261719 C 205.3125 108.613281 192.53125 113.996094 180.519531 120.796875 C 168.226562 127.773438 170.320312 134.167969 183.746094 135.144531 C 194.484375 135.914062 204.324219 139.296875 191.050781 149.457031 C 179.105469 158.585938 177.15625 168.070312 177.578125 175.167969 C 181.089844 161.617188 188.820312 153.039062 201.707031 148.503906 C 205.558594 147.152344 211.625 145.480469 214.617188 143.925781 C 223.597656 139.21875 223.773438 134.363281 204.339844 133.085938 C 190.402344 132.164062 195.609375 119.847656 210.578125 112.507812 C 220.789062 107.527344 236.734375 107.390625 247.855469 104.707031 C 291.265625 94.242188 285.800781 68.03125 241.71875 74.253906 C 224.222656 76.71875 206.003906 83.046875 191.46875 82.898438 C 165.417969 82.632812 168.316406 65.8125 184.851562 53.773438 C 211.144531 34.609375 248.3125 22.371094 282.40625 15.714844 " fill-opacity="1" fill-rule="evenodd"/></g><g clip-path="url(#17f035c330)"><path fill="#f6f7f1" d="M 219.335938 175.835938 L 219.335938 180.792969 L 223.796875 180.792969 C 227.015625 180.792969 229.933594 182.113281 232.042969 184.21875 L 232.035156 184.21875 C 234.152344 186.339844 235.46875 189.265625 235.46875 192.480469 C 235.46875 195.671875 234.152344 198.582031 232.042969 200.710938 L 232.035156 200.710938 L 232.035156 200.71875 C 229.917969 202.832031 227.007812 204.144531 223.796875 204.144531 L 214.828125 204.144531 C 209.234375 213.558594 198.949219 219.910156 187.253906 219.910156 C 169.613281 219.910156 155.175781 205.460938 155.175781 187.804688 L 155.175781 175.835938 Z M 219.335938 184.355469 L 219.335938 187.804688 C 219.335938 192.339844 218.375 196.660156 216.660156 200.589844 L 223.796875 200.589844 C 226.027344 200.589844 228.066406 199.675781 229.523438 198.203125 L 229.527344 198.195312 C 231.003906 196.734375 231.90625 194.699219 231.90625 192.480469 C 231.90625 190.234375 231.003906 188.210938 229.527344 186.734375 L 229.523438 186.734375 C 228.066406 185.265625 226.027344 184.355469 223.796875 184.355469 L 219.335938 184.355469 " fill-opacity="1" fill-rule="evenodd"/></g><g fill="#f6f7f1" fill-opacity="1"><g transform="translate(25.703909, 272.790186)"><g><path d="M 3.265625 -31.609375 C 4.222656 -31.859375 5.320312 -32.09375 6.5625 -32.3125 C 7.613281 -32.5 8.863281 -32.671875 10.3125 -32.828125 C 11.757812 -32.984375 13.363281 -33.0625 15.125 -33.0625 C 17.738281 -33.0625 20.046875 -32.734375 22.046875 -32.078125 C 24.046875 -31.429688 25.71875 -30.53125 27.0625 -29.375 C 28.414062 -28.226562 29.441406 -26.867188 30.140625 -25.296875 C 30.847656 -23.734375 31.203125 -22.050781 31.203125 -20.25 C 31.203125 -18.445312 30.859375 -16.757812 30.171875 -15.1875 C 29.484375 -13.625 28.472656 -12.269531 27.140625 -11.125 C 25.804688 -9.976562 24.175781 -9.078125 22.25 -8.421875 C 20.332031 -7.773438 18.113281 -7.453125 15.59375 -7.453125 L 13.03125 -7.453125 L 13.03125 0 L 3.265625 0 Z M 15.59375 -15.828125 C 17.457031 -15.828125 18.851562 -16.238281 19.78125 -17.0625 C 20.71875 -17.882812 21.1875 -18.945312 21.1875 -20.25 C 21.1875 -21.550781 20.703125 -22.613281 19.734375 -23.4375 C 18.773438 -24.257812 17.238281 -24.671875 15.125 -24.671875 C 14.882812 -24.671875 14.644531 -24.65625 14.40625 -24.625 C 14.175781 -24.59375 13.953125 -24.5625 13.734375 -24.53125 C 13.484375 -24.5 13.25 -24.46875 13.03125 -24.4375 L 13.03125 -15.828125 Z M 15.59375 -15.828125 "/></g></g></g><g fill="#f6f7f1" fill-opacity="1"><g transform="translate(56.898113, 272.790186)"><g><path d="M 3.265625 -31.609375 C 4.347656 -31.859375 5.539062 -32.09375 6.84375 -32.3125 C 7.957031 -32.5 9.273438 -32.671875 10.796875 -32.828125 C 12.316406 -32.984375 13.992188 -33.0625 15.828125 -33.0625 C 18.441406 -33.0625 20.75 -32.734375 22.75 -32.078125 C 24.75 -31.429688 26.421875 -30.546875 27.765625 -29.421875 C 29.117188 -28.304688 30.144531 -26.992188 30.84375 -25.484375 C 31.539062 -23.984375 31.890625 -22.394531 31.890625 -20.71875 C 31.890625 -19.007812 31.578125 -17.554688 30.953125 -16.359375 C 30.335938 -15.171875 29.675781 -14.1875 28.96875 -13.40625 C 28.125 -12.507812 27.160156 -11.765625 26.078125 -11.171875 L 32.125 0 L 21.65625 0 L 17.234375 -8.375 L 13.03125 -8.375 L 13.03125 0 L 3.265625 0 Z M 16.296875 -16.765625 C 18.160156 -16.765625 19.554688 -17.160156 20.484375 -17.953125 C 21.421875 -18.742188 21.890625 -19.664062 21.890625 -20.71875 C 21.890625 -21.769531 21.40625 -22.691406 20.4375 -23.484375 C 19.476562 -24.273438 17.941406 -24.671875 15.828125 -24.671875 C 15.390625 -24.671875 15.007812 -24.65625 14.6875 -24.625 C 14.363281 -24.59375 14.078125 -24.5625 13.828125 -24.53125 C 13.515625 -24.5 13.25 -24.46875 13.03125 -24.4375 L 13.03125 -16.765625 Z M 16.296875 -16.765625 "/></g></g></g><g fill="#f6f7f1" fill-opacity="1"><g transform="translate(89.023488, 272.790186)"><g><path d="M 18.390625 0.46875 C 16.128906 0.46875 13.992188 0.0351562 11.984375 -0.828125 C 9.984375 -1.703125 8.226562 -2.898438 6.71875 -4.421875 C 5.21875 -5.941406 4.03125 -7.71875 3.15625 -9.75 C 2.289062 -11.78125 1.859375 -13.960938 1.859375 -16.296875 C 1.859375 -18.617188 2.289062 -20.796875 3.15625 -22.828125 C 4.03125 -24.867188 5.21875 -26.648438 6.71875 -28.171875 C 8.226562 -29.691406 9.984375 -30.882812 11.984375 -31.75 C 13.992188 -32.625 16.128906 -33.0625 18.390625 -33.0625 C 20.660156 -33.0625 22.796875 -32.625 24.796875 -31.75 C 26.796875 -30.882812 28.546875 -29.691406 30.046875 -28.171875 C 31.554688 -26.648438 32.742188 -24.867188 33.609375 -22.828125 C 34.484375 -20.796875 34.921875 -18.617188 34.921875 -16.296875 C 34.921875 -13.960938 34.484375 -11.78125 33.609375 -9.75 C 32.742188 -7.71875 31.554688 -5.941406 30.046875 -4.421875 C 28.546875 -2.898438 26.796875 -1.703125 24.796875 -0.828125 C 22.796875 0.0351562 20.660156 0.46875 18.390625 0.46875 Z M 18.390625 -8.375 C 19.265625 -8.375 20.097656 -8.5625 20.890625 -8.9375 C 21.679688 -9.3125 22.367188 -9.835938 22.953125 -10.515625 C 23.546875 -11.203125 24.019531 -12.035156 24.375 -13.015625 C 24.726562 -13.992188 24.90625 -15.085938 24.90625 -16.296875 C 24.90625 -17.503906 24.726562 -18.597656 24.375 -19.578125 C 24.019531 -20.554688 23.546875 -21.382812 22.953125 -22.0625 C 22.367188 -22.75 21.679688 -23.28125 20.890625 -23.65625 C 20.097656 -24.03125 19.265625 -24.21875 18.390625 -24.21875 C 17.523438 -24.21875 16.695312 -24.03125 15.90625 -23.65625 C 15.113281 -23.28125 14.421875 -22.75 13.828125 -22.0625 C 13.234375 -21.382812 12.757812 -20.554688 12.40625 -19.578125 C 12.050781 -18.597656 11.875 -17.503906 11.875 -16.296875 C 11.875 -15.085938 12.050781 -13.992188 12.40625 -13.015625 C 12.757812 -12.035156 13.234375 -11.203125 13.828125 -10.515625 C 14.421875 -9.835938 15.113281 -9.3125 15.90625 -8.9375 C 16.695312 -8.5625 17.523438 -8.375 18.390625 -8.375 Z M 18.390625 -8.375 "/></g></g></g><g fill="#f6f7f1" fill-opacity="1"><g transform="translate(124.407971, 272.790186)"><g><path d="M 18.390625 0.46875 C 16.128906 0.46875 13.992188 0.0351562 11.984375 -0.828125 C 9.984375 -1.703125 8.226562 -2.898438 6.71875 -4.421875 C 5.21875 -5.941406 4.03125 -7.71875 3.15625 -9.75 C 2.289062 -11.78125 1.859375 -13.960938 1.859375 -16.296875 C 1.859375 -18.617188 2.289062 -20.796875 3.15625 -22.828125 C 4.03125 -24.867188 5.21875 -26.648438 6.71875 -28.171875 C 8.226562 -29.691406 9.984375 -30.882812 11.984375 -31.75 C 13.992188 -32.625 16.128906 -33.0625 18.390625 -33.0625 C 20.535156 -33.0625 22.40625 -32.773438 24 -32.203125 C 25.601562 -31.628906 26.945312 -30.984375 28.03125 -30.265625 C 29.269531 -29.460938 30.328125 -28.53125 31.203125 -27.46875 L 24.671875 -20.71875 C 24.273438 -21.34375 23.796875 -21.914062 23.234375 -22.4375 C 22.734375 -22.875 22.125 -23.28125 21.40625 -23.65625 C 20.695312 -24.03125 19.847656 -24.21875 18.859375 -24.21875 C 17.867188 -24.21875 16.945312 -24.03125 16.09375 -23.65625 C 15.238281 -23.28125 14.5 -22.75 13.875 -22.0625 C 13.25 -21.382812 12.757812 -20.554688 12.40625 -19.578125 C 12.050781 -18.597656 11.875 -17.503906 11.875 -16.296875 C 11.875 -15.085938 12.050781 -13.992188 12.40625 -13.015625 C 12.757812 -12.035156 13.25 -11.203125 13.875 -10.515625 C 14.5 -9.835938 15.238281 -9.3125 16.09375 -8.9375 C 16.945312 -8.5625 17.867188 -8.375 18.859375 -8.375 C 19.941406 -8.375 20.878906 -8.578125 21.671875 -8.984375 C 22.460938 -9.390625 23.125 -9.84375 23.65625 -10.34375 C 24.238281 -10.894531 24.734375 -11.5625 25.140625 -12.34375 L 31.65625 -5.59375 C 30.789062 -4.4375 29.722656 -3.425781 28.453125 -2.5625 C 27.359375 -1.78125 25.972656 -1.078125 24.296875 -0.453125 C 22.628906 0.160156 20.660156 0.46875 18.390625 0.46875 Z M 18.390625 0.46875 "/></g></g></g><g fill="#f6f7f1" fill-opacity="1"><g transform="translate(155.13658, 272.790186)"><g><path d="M 11.171875 -32.59375 L 20.015625 -32.59375 L 31.203125 0 L 20.71875 0 L 19.328125 -5.59375 L 11.875 -5.59375 L 10.46875 0 L 0 0 Z M 17.234375 -13.5 L 15.828125 -19.09375 L 15.359375 -19.09375 L 13.96875 -13.5 Z M 17.234375 -13.5 "/></g></g></g><g fill="#f6f7f1" fill-opacity="1"><g transform="translate(184.934017, 272.790186)"><g><path d="M 3.265625 -32.59375 L 25.609375 -32.59375 L 25.609375 -24.21875 L 13.03125 -24.21875 L 13.03125 -21.421875 L 22.34375 -21.421875 L 22.34375 -13.03125 L 13.03125 -13.03125 L 13.03125 0 L 3.265625 0 Z M 3.265625 -32.59375 "/></g></g></g><g fill="#f6f7f1" fill-opacity="1"><g transform="translate(209.609995, 272.790186)"><g><path d="M 3.265625 -32.59375 L 26.546875 -32.59375 L 26.546875 -24.21875 L 13.03125 -24.21875 L 13.03125 -21.421875 L 23.75 -21.421875 L 23.75 -13.03125 L 13.03125 -13.03125 L 13.03125 -8.375 L 27.46875 -8.375 L 27.46875 0 L 3.265625 0 Z M 14.4375 -42.84375 L 24.21875 -42.84375 L 18.15625 -35.859375 L 11.171875 -35.859375 Z M 14.4375 -42.84375 "/></g></g></g><g fill="#f6f7f1" fill-opacity="1"><g transform="translate(237.079498, 272.790186)"><g><path d="M 3.265625 -32.59375 L 13.03125 -32.59375 L 13.03125 0 L 3.265625 0 Z M 3.265625 -32.59375 "/></g></g></g><g fill="#f6f7f1" fill-opacity="1"><g transform="translate(251.978172, 272.790186)"><g><path d="M 3.265625 -32.59375 L 12.109375 -32.59375 L 21.890625 -18.15625 L 22.34375 -18.15625 L 22.34375 -32.59375 L 32.125 -32.59375 L 32.125 0 L 23.28125 0 L 13.5 -14.4375 L 13.03125 -14.4375 L 13.03125 0 L 3.265625 0 Z M 3.265625 -32.59375 "/></g></g></g><g fill="#f6f7f1" fill-opacity="1"><g transform="translate(285.965886, 272.790186)"><g><path d="M 11.171875 -32.59375 L 20.015625 -32.59375 L 31.203125 0 L 20.71875 0 L 19.328125 -5.59375 L 11.875 -5.59375 L 10.46875 0 L 0 0 Z M 17.234375 -13.5 L 15.828125 -19.09375 L 15.359375 -19.09375 L 13.96875 -13.5 Z M 17.234375 -13.5 "/></g></g></g><g fill="#f6f7f1" fill-opacity="1"><g transform="translate(315.763324, 272.790186)"><g><path d="M 3.265625 -31.609375 C 4.347656 -31.859375 5.539062 -32.09375 6.84375 -32.3125 C 7.957031 -32.5 9.273438 -32.671875 10.796875 -32.828125 C 12.316406 -32.984375 13.992188 -33.0625 15.828125 -33.0625 C 18.441406 -33.0625 20.75 -32.734375 22.75 -32.078125 C 24.75 -31.429688 26.421875 -30.546875 27.765625 -29.421875 C 29.117188 -28.304688 30.144531 -26.992188 30.84375 -25.484375 C 31.539062 -23.984375 31.890625 -22.394531 31.890625 -20.71875 C 31.890625 -19.007812 31.578125 -17.554688 30.953125 -16.359375 C 30.335938 -15.171875 29.675781 -14.1875 28.96875 -13.40625 C 28.125 -12.507812 27.160156 -11.765625 26.078125 -11.171875 L 32.125 0 L 21.65625 0 L 17.234375 -8.375 L 13.03125 -8.375 L 13.03125 0 L 3.265625 0 Z M 16.296875 -16.765625 C 18.160156 -16.765625 19.554688 -17.160156 20.484375 -17.953125 C 21.421875 -18.742188 21.890625 -19.664062 21.890625 -20.71875 C 21.890625 -21.769531 21.40625 -22.691406 20.4375 -23.484375 C 19.476562 -24.273438 17.941406 -24.671875 15.828125 -24.671875 C 15.390625 -24.671875 15.007812 -24.65625 14.6875 -24.625 C 14.363281 -24.59375 14.078125 -24.5625 13.828125 -24.53125 C 13.515625 -24.5 13.25 -24.46875 13.03125 -24.4375 L 13.03125 -16.765625 Z M 16.296875 -16.765625 "/></g></g></g><g fill="#f6f7f1" fill-opacity="1"><g transform="translate(76.531571, 301.694891)"><g><path d="M 6.15625 0.25 C 5.34375 0.25 4.585938 0.109375 3.890625 -0.171875 C 3.203125 -0.460938 2.601562 -0.863281 2.09375 -1.375 C 1.59375 -1.882812 1.195312 -2.484375 0.90625 -3.171875 C 0.625 -3.859375 0.484375 -4.609375 0.484375 -5.421875 C 0.484375 -6.234375 0.625 -6.984375 0.90625 -7.671875 C 1.195312 -8.359375 1.59375 -8.957031 2.09375 -9.46875 C 2.601562 -9.976562 3.203125 -10.375 3.890625 -10.65625 C 4.585938 -10.945312 5.34375 -11.09375 6.15625 -11.09375 C 6.957031 -11.09375 7.707031 -10.945312 8.40625 -10.65625 C 9.101562 -10.375 9.703125 -9.976562 10.203125 -9.46875 C 10.703125 -8.957031 11.09375 -8.359375 11.375 -7.671875 C 11.664062 -6.984375 11.8125 -6.234375 11.8125 -5.421875 C 11.8125 -4.609375 11.664062 -3.859375 11.375 -3.171875 C 11.09375 -2.484375 10.703125 -1.882812 10.203125 -1.375 C 9.703125 -0.863281 9.101562 -0.460938 8.40625 -0.171875 C 7.707031 0.109375 6.957031 0.25 6.15625 0.25 Z M 6.15625 -2.515625 C 6.550781 -2.515625 6.914062 -2.585938 7.25 -2.734375 C 7.582031 -2.878906 7.867188 -3.078125 8.109375 -3.328125 C 8.359375 -3.585938 8.550781 -3.894531 8.6875 -4.25 C 8.832031 -4.613281 8.90625 -5.003906 8.90625 -5.421875 C 8.90625 -5.835938 8.832031 -6.222656 8.6875 -6.578125 C 8.550781 -6.941406 8.359375 -7.253906 8.109375 -7.515625 C 7.867188 -7.773438 7.582031 -7.976562 7.25 -8.125 C 6.914062 -8.269531 6.550781 -8.34375 6.15625 -8.34375 C 5.75 -8.34375 5.378906 -8.269531 5.046875 -8.125 C 4.710938 -7.976562 4.421875 -7.773438 4.171875 -7.515625 C 3.929688 -7.253906 3.742188 -6.941406 3.609375 -6.578125 C 3.472656 -6.222656 3.40625 -5.835938 3.40625 -5.421875 C 3.40625 -5.003906 3.472656 -4.613281 3.609375 -4.25 C 3.742188 -3.894531 3.929688 -3.585938 4.171875 -3.328125 C 4.421875 -3.078125 4.710938 -2.878906 5.046875 -2.734375 C 5.378906 -2.585938 5.75 -2.515625 6.15625 -2.515625 Z M 6.15625 -2.515625 "/></g></g></g><g fill="#f6f7f1" fill-opacity="1"><g transform="translate(93.722341, 301.694891)"><g/></g></g><g fill="#f6f7f1" fill-opacity="1"><g transform="translate(102.173991, 301.694891)"><g><path d="M 1.140625 -11 L 2.75 -11 L 7 -5.359375 L 11.171875 -11 L 12.78125 -11 L 12.78125 0 L 10.03125 0 L 10.03125 -5.53125 L 7.53125 -2.1875 L 6.390625 -2.1875 L 3.890625 -5.53125 L 3.890625 0 L 1.140625 0 Z M 1.140625 -11 "/></g></g></g><g fill="#f6f7f1" fill-opacity="1"><g transform="translate(120.983116, 301.694891)"><g><path d="M 1.140625 -10.84375 L 7.53125 -10.84375 L 7.53125 -8.28125 L 3.890625 -8.28125 L 3.890625 -6.71875 L 6.5 -6.71875 L 6.5 -4.296875 L 3.890625 -4.296875 L 3.890625 -2.5625 L 7.609375 -2.5625 L 7.609375 0 L 1.140625 0 Z M 1.140625 -10.84375 "/></g></g></g><g fill="#f6f7f1" fill-opacity="1"><g transform="translate(134.28983, 301.694891)"><g><path d="M 1.140625 -10.84375 L 3.890625 -10.84375 L 3.890625 -2.59375 L 7.453125 -2.59375 L 7.453125 0 L 1.140625 0 Z M 1.140625 -10.84375 "/></g></g></g><g fill="#f6f7f1" fill-opacity="1"><g transform="translate(147.11104, 301.694891)"><g><path d="M 1.140625 -10.84375 L 3.890625 -10.84375 L 3.890625 -6.796875 L 7.609375 -6.796875 L 7.609375 -10.84375 L 10.359375 -10.84375 L 10.359375 0 L 7.609375 0 L 7.609375 -4.203125 L 3.890625 -4.203125 L 3.890625 0 L 1.140625 0 Z M 1.140625 -10.84375 "/></g></g></g><g fill="#f6f7f1" fill-opacity="1"><g transform="translate(163.492633, 301.694891)"><g><path d="M 6.15625 0.25 C 5.34375 0.25 4.585938 0.109375 3.890625 -0.171875 C 3.203125 -0.460938 2.601562 -0.863281 2.09375 -1.375 C 1.59375 -1.882812 1.195312 -2.484375 0.90625 -3.171875 C 0.625 -3.859375 0.484375 -4.609375 0.484375 -5.421875 C 0.484375 -6.234375 0.625 -6.984375 0.90625 -7.671875 C 1.195312 -8.359375 1.59375 -8.957031 2.09375 -9.46875 C 2.601562 -9.976562 3.203125 -10.375 3.890625 -10.65625 C 4.585938 -10.945312 5.34375 -11.09375 6.15625 -11.09375 C 6.957031 -11.09375 7.707031 -10.945312 8.40625 -10.65625 C 9.101562 -10.375 9.703125 -9.976562 10.203125 -9.46875 C 10.703125 -8.957031 11.09375 -8.359375 11.375 -7.671875 C 11.664062 -6.984375 11.8125 -6.234375 11.8125 -5.421875 C 11.8125 -4.609375 11.664062 -3.859375 11.375 -3.171875 C 11.09375 -2.484375 10.703125 -1.882812 10.203125 -1.375 C 9.703125 -0.863281 9.101562 -0.460938 8.40625 -0.171875 C 7.707031 0.109375 6.957031 0.25 6.15625 0.25 Z M 6.15625 -2.515625 C 6.550781 -2.515625 6.914062 -2.585938 7.25 -2.734375 C 7.582031 -2.878906 7.867188 -3.078125 8.109375 -3.328125 C 8.359375 -3.585938 8.550781 -3.894531 8.6875 -4.25 C 8.832031 -4.613281 8.90625 -5.003906 8.90625 -5.421875 C 8.90625 -5.835938 8.832031 -6.222656 8.6875 -6.578125 C 8.550781 -6.941406 8.359375 -7.253906 8.109375 -7.515625 C 7.867188 -7.773438 7.582031 -7.976562 7.25 -8.125 C 6.914062 -8.269531 6.550781 -8.34375 6.15625 -8.34375 C 5.75 -8.34375 5.378906 -8.269531 5.046875 -8.125 C 4.710938 -7.976562 4.421875 -7.773438 4.171875 -7.515625 C 3.929688 -7.253906 3.742188 -6.941406 3.609375 -6.578125 C 3.472656 -6.222656 3.40625 -5.835938 3.40625 -5.421875 C 3.40625 -5.003906 3.472656 -4.613281 3.609375 -4.25 C 3.742188 -3.894531 3.929688 -3.585938 4.171875 -3.328125 C 4.421875 -3.078125 4.710938 -2.878906 5.046875 -2.734375 C 5.378906 -2.585938 5.75 -2.515625 6.15625 -2.515625 Z M 6.15625 -2.515625 "/></g></g></g><g fill="#f6f7f1" fill-opacity="1"><g transform="translate(180.683398, 301.694891)"><g><path d="M 1.140625 -10.84375 L 4.796875 -10.84375 C 5.367188 -10.84375 5.894531 -10.753906 6.375 -10.578125 C 6.863281 -10.398438 7.28125 -10.148438 7.625 -9.828125 C 7.976562 -9.503906 8.25 -9.117188 8.4375 -8.671875 C 8.632812 -8.234375 8.734375 -7.75 8.734375 -7.21875 C 8.734375 -6.582031 8.597656 -6.015625 8.328125 -5.515625 C 8.066406 -5.015625 7.691406 -4.601562 7.203125 -4.28125 L 9.546875 0 L 6.390625 0 L 4.59375 -3.59375 L 3.890625 -3.59375 L 3.890625 0 L 1.140625 0 Z M 4.625 -5.9375 C 5.039062 -5.9375 5.367188 -6.050781 5.609375 -6.28125 C 5.859375 -6.519531 5.984375 -6.828125 5.984375 -7.203125 C 5.984375 -7.597656 5.859375 -7.910156 5.609375 -8.140625 C 5.367188 -8.378906 5.039062 -8.5 4.625 -8.5 L 3.890625 -8.5 L 3.890625 -5.9375 Z M 4.625 -5.9375 "/></g></g></g><g fill="#f6f7f1" fill-opacity="1"><g transform="translate(195.284799, 301.694891)"><g/></g></g><g fill="#f6f7f1" fill-opacity="1"><g transform="translate(203.736443, 301.694891)"><g><path d="M 1.140625 -10.84375 L 5.671875 -10.84375 C 6.460938 -10.84375 7.195312 -10.703125 7.875 -10.421875 C 8.5625 -10.148438 9.15625 -9.773438 9.65625 -9.296875 C 10.15625 -8.816406 10.546875 -8.242188 10.828125 -7.578125 C 11.109375 -6.921875 11.25 -6.203125 11.25 -5.421875 C 11.25 -4.640625 11.109375 -3.921875 10.828125 -3.265625 C 10.546875 -2.609375 10.15625 -2.035156 9.65625 -1.546875 C 9.164062 -1.066406 8.578125 -0.6875 7.890625 -0.40625 C 7.203125 -0.132812 6.460938 0 5.671875 0 L 1.140625 0 Z M 5.671875 -2.59375 C 6.054688 -2.59375 6.410156 -2.660156 6.734375 -2.796875 C 7.054688 -2.941406 7.335938 -3.140625 7.578125 -3.390625 C 7.816406 -3.640625 8.003906 -3.9375 8.140625 -4.28125 C 8.273438 -4.632812 8.34375 -5.015625 8.34375 -5.421875 C 8.34375 -5.816406 8.273438 -6.191406 8.140625 -6.546875 C 8.003906 -6.898438 7.816406 -7.195312 7.578125 -7.4375 C 7.335938 -7.6875 7.054688 -7.882812 6.734375 -8.03125 C 6.410156 -8.175781 6.054688 -8.25 5.671875 -8.25 L 3.890625 -8.25 L 3.890625 -2.59375 Z M 5.671875 -2.59375 "/></g></g></g><g fill="#f6f7f1" fill-opacity="1"><g transform="translate(220.360793, 301.694891)"><g><path d="M 6.15625 0.25 C 5.34375 0.25 4.585938 0.109375 3.890625 -0.171875 C 3.203125 -0.460938 2.601562 -0.863281 2.09375 -1.375 C 1.59375 -1.882812 1.195312 -2.484375 0.90625 -3.171875 C 0.625 -3.859375 0.484375 -4.609375 0.484375 -5.421875 C 0.484375 -6.234375 0.625 -6.984375 0.90625 -7.671875 C 1.195312 -8.359375 1.59375 -8.957031 2.09375 -9.46875 C 2.601562 -9.976562 3.203125 -10.375 3.890625 -10.65625 C 4.585938 -10.945312 5.34375 -11.09375 6.15625 -11.09375 C 6.957031 -11.09375 7.707031 -10.945312 8.40625 -10.65625 C 9.101562 -10.375 9.703125 -9.976562 10.203125 -9.46875 C 10.703125 -8.957031 11.09375 -8.359375 11.375 -7.671875 C 11.664062 -6.984375 11.8125 -6.234375 11.8125 -5.421875 C 11.8125 -4.609375 11.664062 -3.859375 11.375 -3.171875 C 11.09375 -2.484375 10.703125 -1.882812 10.203125 -1.375 C 9.703125 -0.863281 9.101562 -0.460938 8.40625 -0.171875 C 7.707031 0.109375 6.957031 0.25 6.15625 0.25 Z M 6.15625 -2.515625 C 6.550781 -2.515625 6.914062 -2.585938 7.25 -2.734375 C 7.582031 -2.878906 7.867188 -3.078125 8.109375 -3.328125 C 8.359375 -3.585938 8.550781 -3.894531 8.6875 -4.25 C 8.832031 -4.613281 8.90625 -5.003906 8.90625 -5.421875 C 8.90625 -5.835938 8.832031 -6.222656 8.6875 -6.578125 C 8.550781 -6.941406 8.359375 -7.253906 8.109375 -7.515625 C 7.867188 -7.773438 7.582031 -7.976562 7.25 -8.125 C 6.914062 -8.269531 6.550781 -8.34375 6.15625 -8.34375 C 5.75 -8.34375 5.378906 -8.269531 5.046875 -8.125 C 4.710938 -7.976562 4.421875 -7.773438 4.171875 -7.515625 C 3.929688 -7.253906 3.742188 -6.941406 3.609375 -6.578125 C 3.472656 -6.222656 3.40625 -5.835938 3.40625 -5.421875 C 3.40625 -5.003906 3.472656 -4.613281 3.609375 -4.25 C 3.742188 -3.894531 3.929688 -3.585938 4.171875 -3.328125 C 4.421875 -3.078125 4.710938 -2.878906 5.046875 -2.734375 C 5.378906 -2.585938 5.75 -2.515625 6.15625 -2.515625 Z M 6.15625 -2.515625 "/></g></g></g><g fill="#f6f7f1" fill-opacity="1"><g transform="translate(237.551558, 301.694891)"><g/></g></g><g fill="#f6f7f1" fill-opacity="1"><g transform="translate(246.003202, 301.694891)"><g><path d="M 6.1875 0.25 C 5.375 0.25 4.617188 0.109375 3.921875 -0.171875 C 3.222656 -0.460938 2.617188 -0.863281 2.109375 -1.375 C 1.597656 -1.882812 1.195312 -2.484375 0.90625 -3.171875 C 0.625 -3.867188 0.484375 -4.625 0.484375 -5.4375 C 0.484375 -6.25 0.625 -6.992188 0.90625 -7.671875 C 1.195312 -8.359375 1.597656 -8.957031 2.109375 -9.46875 C 2.617188 -9.976562 3.21875 -10.375 3.90625 -10.65625 C 4.601562 -10.945312 5.359375 -11.09375 6.171875 -11.09375 C 7.046875 -11.09375 7.847656 -10.921875 8.578125 -10.578125 C 9.316406 -10.242188 9.957031 -9.765625 10.5 -9.140625 L 8.5625 -7.3125 C 8.28125 -7.632812 7.945312 -7.882812 7.5625 -8.0625 C 7.1875 -8.25 6.765625 -8.34375 6.296875 -8.34375 C 5.878906 -8.34375 5.488281 -8.269531 5.125 -8.125 C 4.769531 -7.976562 4.46875 -7.773438 4.21875 -7.515625 C 3.96875 -7.265625 3.769531 -6.957031 3.625 -6.59375 C 3.476562 -6.238281 3.40625 -5.851562 3.40625 -5.4375 C 3.40625 -5.007812 3.476562 -4.613281 3.625 -4.25 C 3.769531 -3.894531 3.96875 -3.585938 4.21875 -3.328125 C 4.476562 -3.078125 4.785156 -2.878906 5.140625 -2.734375 C 5.503906 -2.585938 5.894531 -2.515625 6.3125 -2.515625 C 6.800781 -2.515625 7.234375 -2.601562 7.609375 -2.78125 C 7.984375 -2.96875 8.304688 -3.21875 8.578125 -3.53125 L 10.515625 -1.71875 C 10.003906 -1.101562 9.378906 -0.617188 8.640625 -0.265625 C 7.898438 0.078125 7.082031 0.25 6.1875 0.25 Z M 6.1875 0.25 "/></g></g></g><g fill="#f6f7f1" fill-opacity="1"><g transform="translate(261.656544, 301.694891)"><g><path d="M 4.34375 -11 L 6.4375 -11 L 10.609375 0 L 7.65625 0 L 7.125 -1.609375 L 3.53125 -1.609375 L 2.984375 0 L 0.078125 0 Z M 6.34375 -3.875 L 5.328125 -6.890625 L 4.296875 -3.875 Z M 6.34375 -3.875 "/></g></g></g><g fill="#f6f7f1" fill-opacity="1"><g transform="translate(277.228954, 301.694891)"><g><path d="M 1.140625 -10.84375 L 7.453125 -10.84375 L 7.453125 -8.25 L 3.890625 -8.25 L 3.890625 -6.265625 L 6.421875 -6.265625 L 6.421875 -3.671875 L 3.890625 -3.671875 L 3.890625 0 L 1.140625 0 Z M 1.140625 -10.84375 "/></g></g></g><g fill="#f6f7f1" fill-opacity="1"><g transform="translate(290.050158, 301.694891)"><g><path d="M 1.140625 -10.84375 L 7.53125 -10.84375 L 7.53125 -8.28125 L 3.890625 -8.28125 L 3.890625 -6.71875 L 6.5 -6.71875 L 6.5 -4.296875 L 3.890625 -4.296875 L 3.890625 -2.5625 L 7.609375 -2.5625 L 7.609375 0 L 1.140625 0 Z M 3.421875 -12.328125 L 4.921875 -15.40625 L 6.71875 -14.390625 L 4.875 -11.546875 Z M 3.421875 -12.328125 "/></g></g></g></svg>